HIERARCHY
ROOT Hips
{
  OFFSET 300.378 97.053 168.198
  CHANNELS 6 Xposition Yposition Zposition Zrotation Xrotation Yrotation
  JOINT ToSpine
  {
    OFFSET -2.69724 7.43032 -0.144315
    CHANNELS 3 Zrotation Xrotation Yrotation
    JOINT Spine
    {
      OFFSET -0.0310711 10.7595 1.96963
      CHANNELS 3 Zrotation Xrotation Yrotation
      JOINT Spine1
      {
        OFFSET 13.1342 3.43533 0.764692
        CHANNELS 3 Zrotation Xrotation Yrotation
        JOINT Neck
        {
          OFFSET 29.8703 7.82586 -0.130764
          CHANNELS 3 Zrotation Xrotation Yrotation
          JOINT Head
          {
            OFFSET 9.52751 0.295786 -0.907742
            CHANNELS 3 Zrotation Xrotation Yrotation
            End Site
            {
              OFFSET 16.4037 0.713936 2.7358
            }
          }
        }
        JOINT LeftShoulder
        {
          OFFSET 27.5574 4.95586 2.47156
          CHANNELS 3 Zrotation Xrotation Yrotation
          JOINT LeftArm
          {
            OFFSET 1.20734 -0.998971 20.1238
            CHANNELS 3 Zrotation Xrotation Yrotation
            JOINT LeftForeArm
            {
              OFFSET 26.8049 -0.0536703 -0.155908
              CHANNELS 3 Zrotation Xrotation Yrotation
              JOINT LeftHand
              {
                OFFSET 26.6817 0 0.320147
                CHANNELS 3 Zrotation Xrotation Yrotation
                End Site
                {
                  OFFSET 18.6119 0 0.382219
                }
              }
            }
          }
        }
        JOINT RightShoulder
        {
          OFFSET 27.5927 4.71444 -2.65209
          CHANNELS 3 Zrotation Xrotation Yrotation
          JOINT RightArm
          {
            OFFSET 2.83739 -1.17114 -18.7564
            CHANNELS 3 Zrotation Xrotation Yrotation
            JOINT RightForeArm
            {
              OFFSET 28.839 -0.0548439 1.22491
              CHANNELS 3 Zrotation Xrotation Yrotation
              JOINT RightHand
              {
                OFFSET 26.5114 0 -0.101894
                CHANNELS 3 Zrotation Xrotation Yrotation
                End Site
                {
                  OFFSET 18.2168 0 0
                }
              }
            }
          }
        }
      }
    }
  }
  JOINT LeftUpLeg
  {
    OFFSET -4.76168 -1.9167 -10.2353
    CHANNELS 3 Zrotation Xrotation Yrotation
    JOINT LeftLeg
    {
      OFFSET 2.55951 -42.0585 -8.02213
      CHANNELS 3 Zrotation Xrotation Yrotation
      JOINT LeftFoot
      {
        OFFSET 3.16357 -42.5282 -3.95426
        CHANNELS 3 Zrotation Xrotation Yrotation
        JOINT LeftToeBase
        {
          OFFSET 0.346054 -6.02161 12.8035
          CHANNELS 3 Zrotation Xrotation Yrotation
          End Site
          {
            OFFSET 0.134235 -1.35082 5.13018
          }
        }
      }
    }
  }
  JOINT RightUpLeg
  {
    OFFSET -4.94151 -1.41743 10.6446
    CHANNELS 3 Zrotation Xrotation Yrotation
    JOINT RightLeg
    {
      OFFSET -2.56294 -42.0364 -7.94377
      CHANNELS 3 Zrotation Xrotation Yrotation
      JOINT RightFoot
      {
        OFFSET -3.0952 -42.555 -4.02241
        CHANNELS 3 Zrotation Xrotation Yrotation
        JOINT RightToeBase
        {
          OFFSET -0.0828122 -6.13587 12.8035
          CHANNELS 3 Zrotation Xrotation Yrotation
          End Site
          {
            OFFSET -0.131328 -1.35082 5.13018
          }
        }
      }
    }
  }
}
MOTION
Frames:	20
Frame Time:	0.0333333
-26.2779 96.9904 -69.4047 61.5187 -32.3083 -12.1236 -70.1915 0 88.8779 84.1205 70.8807 5.20639 2.06291 19.3324 5.20631 -158.1 24.1353 171.537 -150.975 62.7568 179.695 -0.223169 -15.6449 -33.8886 -86.0338 36.9008 -81.6101 14.8319 12.0153 -51.3727 0.420957 0.000575424 0.35866 -1.9612 5.79435 48.2123 -64.2952 -21.6938 92.1068 7.27314 -12.5488 30.571 0.58676 0.000331143 0.0646653 -53.5172 -1.52142 93.7858 -0.31026 29.8538 -12.6873 4.47258 -19.2019 -1.44718 0.25895 -3.62739 8.55999 -41.8411 2.87069 83.822 1.00439 27.3272 3.69313 -6.18604 -1.27119 0.978937 1.23617 -9.16161 -1.58855 
-26.6126 97.1581 -69.6887 61.5317 -32.7847 -12.4442 -70.1915 0 88.8779 83.6194 70.9299 5.44196 1.97615 19.3462 5.38021 -157.71 23.8742 171.563 -150.901 62.5071 179.944 -0.220162 -15.6191 -33.9483 -86.5264 37.7808 -80.1802 15.0744 12.2285 -51.3618 0.420957 0.000575424 0.35866 -1.95446 5.7945 48.1029 -64.341 -21.6691 92.4912 7.47179 -12.7831 30.8006 0.58676 0.000331143 0.0646653 -53.8363 -1.21847 95.3061 -0.303284 28.9504 -13.5437 4.52102 -18.4607 -1.41408 -0.226448 -2.53288 7.89 -42.7986 2.67288 83.3751 1.11598 25.2412 4.82606 -5.64588 -1.09058 0.909652 1.06983 -7.23728 -2.02671 
-26.7432 97.2265 -69.8323 61.7061 -32.8671 -12.2842 -70.1915 0 88.8779 82.0852 70.7017 6.78136 2.40693 19.0364 5.77235 -157.603 23.6585 172.101 -151.51 62.3593 -179.573 -0.217707 -15.5275 -34.3266 -86.6757 38.4179 -79.191 14.9329 12.2395 -51.0523 0.420957 0.000575424 0.35866 -1.97468 5.82877 48.2361 -64.7279 -21.3816 92.4765 7.42787 -12.5484 31.1154 0.58676 0.000331143 0.0646653 -53.9342 -0.970769 95.7047 -0.315309 28.7394 -13.3606 4.23636 -18.5097 -1.4263 -0.937857 -0.576724 6.1349 -43.7338 2.74714 83.235 1.31111 23.5992 4.54159 -8.40185 -0.0991951 1.23652 1.0221 -7.65766 -1.07599 
-26.7789 97.3219 -69.8907 61.987 -32.8246 -12.0357 -70.1915 0 88.8779 81.8573 70.57 7.23525 2.52715 19.0054 5.44806 -157.619 23.3913 171.342 -150.409 61.8924 179.026 -0.277104 -15.7743 -34.3365 -86.7902 39.0963 -78.1778 15.3121 12.7406 -50.6905 0.420957 0.000575424 0.35866 -1.96381 5.73876 48.5692 -65.9377 -21.6732 91.7856 7.6778 -12.7881 31.4914 0.58676 0.000331143 0.0646653 -54.3129 -0.887496 96.1107 -0.190031 28.2663 -13.7792 4.87197 -17.7954 -1.37604 -0.891055 -0.496503 5.69092 -44.3995 2.66749 83.038 1.48875 22.7045 4.74964 -7.33843 0.0165616 1.09798 0.988351 -6.98424 -1.49126 
-26.7497 97.385 -69.9439 62.0818 -32.7503 -12.0786 -70.1915 0 88.8779 82.7513 70.5247 6.40733 1.70354 19.0098 5.24826 -156.17 23.3155 170.657 -149.465 61.8 179.126 -0.184196 -15.461 -33.9716 -85.6515 39.8963 -78.1874 15.5863 13.1779 -50.2899 0.420957 0.000575424 0.35866 -1.9268 5.6205 48.6452 -66.41 -22.4579 90.9356 7.86024 -12.8172 32.0419 0.58676 0.000331143 0.0646653 -54.62 -0.985183 96.4267 -0.134073 27.6749 -13.5382 5.10019 -17.495 -1.35846 -0.943872 0.162095 4.28783 -44.7085 2.4212 82.9136 1.50516 22.2273 4.94212 -6.48419 0.0203845 0.987024 0.851728 -6.13301 -1.09649 
-26.5857 97.446 -69.9462 62.3272 -32.6094 -11.9554 -70.1915 0 88.8779 82.6483 70.4286 6.70206 1.71444 18.9989 4.98557 -156.267 23.4404 170.701 -149.409 61.8904 178.765 -0.218574 -15.553 -34.2241 -85.7289 40.3931 -77.6058 15.571 13.4201 -49.7622 0.420957 0.000575424 0.35866 -1.95787 5.67505 48.8391 -66.3789 -22.5993 90.4695 7.56496 -12.3555 31.9792 0.58676 0.000331143 0.0646653 -55.0521 -1.06899 96.6575 -0.0605704 27.2893 -13.7624 4.93104 -17.9142 -1.37882 -1.74335 1.81244 4.16761 -45.1328 2.20993 82.7973 1.60904 21.9203 4.37963 -7.31703 0.217278 1.0924 0.755915 -6.44415 0.120681 
-26.4391 97.4583 -69.9116 62.4397 -32.4857 -11.931 -70.1915 0 88.8779 82.2189 70.4371 7.03518 1.81851 18.9862 5.10758 -156.816 23.6302 171.325 -150.503 62.2086 179.506 -0.228834 -15.5438 -34.4702 -85.7596 40.9657 -77.3397 15.1969 13.2836 -49.3331 0.420957 0.000575424 0.35866 -1.9727 5.73553 48.7316 -65.8265 -22.7162 90.2654 7.62894 -12.4583 31.9868 0.58676 0.000331143 0.0646653 -55.2822 -1.207 96.6984 -0.0289697 27.191 -14.3302 4.34155 -18.3325 -1.41483 -2.48442 2.54495 5.80287 -45.1972 2.12736 82.8027 1.60379 22.0189 3.74434 -8.20325 0.175481 1.2092 0.747747 -6.97677 0.83913 
-26.2009 97.4194 -69.771 62.4058 -32.1998 -11.8309 -70.1915 0 88.8779 81.3039 70.2339 8.16357 2.05341 18.9215 4.72291 -157.081 23.5652 170.971 -150.024 62.0434 178.799 -0.196144 -15.4492 -34.2686 -85.545 41.678 -76.8989 15.656 13.5429 -49.6713 0.420957 0.000575424 0.35866 -1.96024 5.60932 49.2625 -65.6223 -22.4743 90.1153 7.62145 -12.633 31.6086 0.58676 0.000331143 0.0646653 -55.279 -1.08237 96.9819 -0.0350553 27.2788 -15.1251 4.66293 -17.7955 -1.38214 -1.89777 1.14783 6.41315 -45.4001 2.23049 82.9878 1.55215 21.7881 2.12164 -9.81151 -0.114524 1.41792 0.590929 -7.40127 2.96796 
-25.9948 97.4204 -69.6211 62.4343 -31.7989 -11.8547 -70.1915 0 88.8779 80.5102 70.2089 8.65188 2.17482 18.9182 4.77417 -157.333 23.5261 170.458 -149.445 61.8737 177.87 -0.204702 -15.5025 -34.1864 -85.4398 42.114 -76.8319 15.641 13.4525 -49.827 0.420957 0.000575424 0.35866 -1.88447 5.39846 49.2612 -65.1974 -22.6213 90.2799 7.54873 -12.7854 31.0613 0.58676 0.000331143 0.0646653 -55.5276 -1.18888 97.1059 -0.0839109 26.9231 -15.4038 4.43678 -17.8045 -1.38913 -1.93273 1.25121 6.32626 -45.2446 2.08203 82.9134 1.34296 22.3889 3.49599 -7.60038 -1.22462 1.14632 0.717247 -5.50682 -0.543386 
-25.6595 97.3429 -69.3817 62.5788 -31.5163 -11.8781 -70.1915 0 88.8779 80.0979 70.2831 8.63158 2.10607 18.918 5.05404 -157.523 23.6319 170.328 -149.317 61.916 177.275 -0.211538 -15.5325 -34.1806 -85.2037 42.5104 -76.8649 16.1044 13.8853 -49.8287 0.420957 0.000575424 0.35866 -1.85459 5.44691 48.4588 -65.365 -23.7556 90.1834 7.67225 -13.2671 30.5549 0.58676 0.000331143 0.0646653 -55.9592 -1.27886 97.4473 -0.0963298 26.7024 -15.9524 4.86813 -17.9237 -1.3811 -1.93465 1.22502 6.39734 -45.3119 1.90941 83.03 1.19381 23.0274 2.1083 -9.34034 -1.86587 1.35136 0.576852 -6.44348 1.77948 
-25.2648 97.151 -69.1318 62.6121 -31.372 -12.0243 -70.1915 0 88.8779 79.9271 70.2456 8.68139 2.11726 18.911 4.89979 -157.441 23.8864 170.983 -150.587 62.4324 179.043 -0.187646 -15.4038 -34.315 -84.6065 42.6273 -77.1985 15.7508 13.4872 -49.9647 0.420957 0.000575424 0.35866 -1.90547 5.64546 48.1489 -65.6812 -24.3222 89.7761 7.79367 -13.5887 30.3604 0.58676 0.000331143 0.0646653 -56.1711 -1.38121 97.7661 -0.0763488 26.9146 -16.1989 4.79693 -18.2185 -1.39481 -1.77918 1.04134 6.12332 -45.1728 1.90897 83.3981 0.90343 23.9461 1.33106 -10.5567 -2.87746 1.47545 0.625324 -7.25284 2.40889 
-24.9045 96.948 -68.869 61.9731 -30.8981 -12.4597 -70.1915 0 88.8779 78.9663 70.0772 9.63686 1.75154 18.8859 4.64066 -157.301 23.7616 170.317 -149.487 62.1426 178.03 -0.181553 -15.4542 -33.9508 -84.3766 42.9965 -77.1904 15.631 13.2328 -50.2612 0.420957 0.000575424 0.35866 -1.89091 5.55927 48.4068 -66.14 -24.6799 88.9532 7.84232 -13.5437 30.5978 0.58676 0.000331143 0.0646653 -55.585 -1.50069 97.8316 -0.258859 27.4132 -16.9388 5.36149 -18.3585 -1.38092 -1.52718 0.0137505 7.49101 -43.8198 1.90331 84.0238 0.638769 26.0144 0.942587 -10.6487 -4.08217 1.46733 0.839482 -7.56855 0.689771 
-24.4044 96.7135 -68.4942 62.0691 -30.7785 -12.3623 -70.1915 0 88.8779 80.0459 70.047 8.63302 1.60415 18.8536 4.43001 -157.557 23.8161 170.15 -149.778 62.2145 178.023 -0.12527 -15.2594 -33.7297 -83.2652 42.9593 -78.3907 15.768 13.244 -50.496 0.420957 0.000575424 0.35866 -1.86687 5.55539 48.0271 -66.6282 -25.7271 88.3068 7.85554 -13.2187 31.2422 0.58676 0.000331143 0.0646653 -55.9956 -1.30262 98.0319 -0.404152 27.6367 -17.2429 5.42611 -18.1387 -1.37134 -0.450276 -1.82627 7.03185 -42.6962 2.50384 85.5618 0.552092 28.9928 1.03331 -8.77079 -4.8754 1.29123 1.39147 -8.31837 -4.32295 
-23.884 96.4251 -68.1847 61.3895 -30.4471 -12.9501 -70.1915 0 88.8779 79.8185 69.9315 8.92975 1.25454 18.8212 4.22667 -158.197 23.6724 170.292 -149.916 62.0435 177.919 -0.117594 -15.2174 -33.7739 -82.5266 42.5329 -79.4828 15.6628 13.0714 -50.6499 0.420957 0.000575424 0.35866 -1.853 5.55488 47.7976 -67.6078 -26.5983 86.9357 8.41479 -13.4796 32.5298 0.58676 0.000331143 0.0646653 -55.4431 -1.60328 97.9848 -0.475365 28.2707 -17.5305 5.93828 -18.3516 -1.36091 0.0873235 -3.11817 7.92573 -39.8578 2.31657 86.8789 1.16254 33.7863 -0.902534 -7.86453 -5.10096 1.21402 1.59477 -10.2698 -4.82054 
-23.3531 96.2002 -67.7833 60.3911 -30.4028 -13.939 -70.1915 0 88.8779 79.8517 69.8575 8.88811 0.580278 18.8721 3.91795 -158.333 23.498 170.132 -149.666 61.846 178.02 -0.119101 -15.259 -33.6022 -82.0094 41.9247 -80.3999 15.9596 13.1332 -51.0643 0.420957 0.000575424 0.35866 -1.83175 5.59466 47.2144 -68.0211 -28.1876 86.2851 8.83436 -13.7257 33.3485 0.58676 0.000331143 0.0646653 -54.9512 -1.98454 98.0351 -0.563496 28.4606 -16.993 6.00104 -18.9738 -1.37634 0.217069 -3.24899 7.59026 -35.8359 2.35339 87.8184 1.67788 39.9149 0.144318 -5.93325 -4.92322 1.04406 2.16058 -10.4034 -12.5712 
-22.5686 95.8301 -67.1349 59.922 -30.7955 -14.4421 -70.1915 0 88.8779 81.4952 69.7725 7.43715 0.217067 18.7929 3.643 -159.051 23.1182 170.57 -149.962 61.4652 178.221 -0.144651 -15.3365 -33.7596 -81.7655 40.8498 -81.1028 16.2677 13.1133 -51.6574 0.420957 0.000575424 0.35866 -1.81619 5.55853 47.1586 -67.7527 -29.0019 85.8087 8.8649 -13.4062 34.0495 0.58676 0.000331143 0.0646653 -55.2294 -1.78696 98.6075 -0.593383 28.8017 -16.8823 6.20224 -19.6653 -1.38662 0.697682 -4.07379 7.40154 -32.0247 2.35313 87.3991 1.74905 45.5963 -2.69121 -7.30633 -4.36003 1.1557 1.95748 -11.8091 -8.82067 
-21.6649 95.6636 -66.3833 59.3374 -30.8787 -15.1007 -70.1915 0 88.8779 82.193 69.4744 6.27472 0.0275782 18.3503 3.98441 -159.929 22.6568 171.164 -150.203 61 178.448 -0.151954 -15.412 -33.5502 -81.5203 40.1093 -82.0278 16.2033 12.9285 -51.9244 0.420957 0.000575424 0.35866 -1.77579 5.4938 46.8431 -67.3668 -29.9111 85.7886 8.29673 -12.5217 34.0532 0.58676 0.000331143 0.0646653 -56.0264 -1.88198 99.0746 -0.695381 27.9372 -17.2235 6.09482 -19.9948 -1.40068 0.695854 -4.24523 7.98914 -28.6752 2.63542 88.2253 2.08335 47.8097 -1.97743 -6.62806 -6.15955 1.12958 1.96437 -10.6694 -9.68253 
-20.7037 95.3336 -65.3702 58.6785 -30.6178 -15.2829 -70.1915 0 88.8779 81.9002 69.0582 5.87581 0.287166 17.6099 5.02472 -161.075 22.2547 171.766 -149.85 60.5391 178.484 -0.22067 -15.6679 -33.7361 -81.0658 38.86 -84.1727 15.2423 12.4582 -51.1632 0.420957 0.000575424 0.35866 -1.74654 5.42383 46.7435 -67.133 -30.336 85.4117 8.03253 -12.0423 34.2128 0.58676 0.000331143 0.0646653 -56.0467 -1.45054 99.3169 -0.60427 28.4563 -17.6836 6.26697 -21.0579 -1.41988 0.535057 -4.00476 8.16078 -26.1442 2.75605 87.913 2.1623 45.8655 0.0273258 -7.81151 -4.00889 1.19873 2.21965 -16.4227 -11.4268 
-19.4951 95.0191 -64.2635 58.3492 -30.591 -15.5942 -70.1915 0 88.8779 82.6774 68.6245 4.40834 0.577094 16.9081 5.74662 -161.865 21.7186 172.463 -150.329 60.1198 179.584 -0.214058 -15.6982 -33.4723 -79.7793 37.54 -85.9227 15.6385 12.6309 -51.5261 0.420957 0.000575424 0.35866 -1.80936 5.5669 46.9959 -66.7857 -30.5348 84.7652 8.21407 -12.2997 34.2643 0.58676 0.000331143 0.0646653 -56.913 -1.36799 99.5851 -0.593215 28.336 -17.5937 6.01458 -22.6307 -1.47988 -0.47554 -2.25447 8.41568 -24.0413 2.56318 87.8919 1.95564 42.418 0.905248 -6.68543 -4.18835 1.0952 2.20623 -15.6513 -11.6257 
-18.192 94.4585 -62.9995 58.3241 -30.6553 -15.669 -70.1915 0 88.8779 85.2848 68.3616 1.36718 0.639929 16.5125 5.99362 -162.388 21.342 171.58 -149.307 59.5831 179.281 -0.306021 -16.1847 -33.1128 -79.1579 36.1324 -87.8131 16.1498 13.2843 -51.084 0.420957 0.000575424 0.35866 -1.81245 5.45513 47.6924 -66.4549 -30.425 84.3536 7.8812 -12.0438 33.7132 0.58676 0.000331143 0.0646653 -57.679 -1.24624 99.5266 -0.542787 29.206 -17.135 7.49829 -22.7025 -1.37109 0.560913 -4.29573 8.99022 -22.4348 2.41423 87.7418 1.6619 38.1262 1.17405 -7.02387 -3.458 1.11469 2.25504 -17.8213 -11.8583 
